<?xml version="1.0" encoding="UTF-8" standalone="no"?> <svg width="64" height="64" viewBox="0 0 64 64" fill="none" xmlns="http://www.w3.org/2000/svg">
<path d="M24.414 50.586C24.789 50.2109 25.2976 50.0001 25.828 50H38.928C39.631 50.0024 40.3217 49.8159 40.928 49.46L56.45 40.5C57.1387 40.1014 57.6412 39.4459 57.8474 38.6774C58.0536 37.9088 57.9467 37.0898 57.55 36.4C57.259 35.8943 56.8238 35.4869 56.3 35.23C55.8564 35.0044 55.3637 34.8926 54.8662 34.9048C54.3686 34.9171 53.882 35.0529 53.45 35.3L41.81 42.02C41.6689 42.4354 41.4326 42.8121 41.12 43.12C40.8419 43.399 40.5115 43.6203 40.1477 43.7713C39.7839 43.9223 39.3939 44 39 44V44C39.3939 44 39.7839 43.9223 40.1477 43.7713C40.5115 43.6203 40.8419 43.399 41.12 43.12C41.4326 42.8121 41.6689 42.4354 41.81 42.02C41.9763 41.6011 42.038 41.1481 41.99 40.7C41.9215 39.9473 41.5672 39.2495 41 38.75C40.4424 38.2658 39.7285 37.9994 38.99 38H30.828C30.2976 37.9999 29.789 37.7891 29.414 37.414L29.17 37.17C28.4204 36.4213 27.4045 36.0005 26.345 36H18.66C18.53 36 18.4 36.01 18.26 36.02C17.3413 36.1106 16.4825 36.517 15.83 37.17L12.5 40.5L23.5 51.5L24.414 50.586Z" fill="#FFBCAB"/>
<path d="M25 53L23.5 51.5L12.5 40.5L10.86 38.86L3 47V61H17L25 53Z" fill="#006DF0"/>
<path d="M61 5H17V31H61V5Z" fill="#5EAC24"/>
<path d="M57 11.92V24.08C55.784 24.776 54.776 25.784 54.08 27H23.92C23.2297 25.7797 22.2203 24.7703 21 24.08V11.92C22.2203 11.2297 23.2297 10.2203 23.92 9H54.08C54.7703 10.2203 55.7797 11.2297 57 11.92V11.92Z" fill="#91DC5A"/>
<path d="M39 27C43.9706 27 48 22.9706 48 18C48 13.0294 43.9706 9 39 9C34.0294 9 30 13.0294 30 18C30 22.9706 34.0294 27 39 27Z" fill="#F1F2F2"/>
<path d="M61 5H59V31H61V5Z" fill="#559B20"/>
<path d="M56.751 34.337C56.159 34.0372 55.5017 33.8893 54.8384 33.9068C54.175 33.9242 53.5264 34.1065 52.951 34.437L42.914 40.227C42.752 39.3662 42.3097 38.5831 41.656 38C40.9174 37.3555 39.9703 37.0002 38.99 37H30.828C30.563 36.999 30.309 36.8937 30.121 36.707L29.877 36.463C29.4144 35.9978 28.8641 35.629 28.258 35.3778C27.6519 35.1267 27.0021 34.9983 26.346 35H18.66C18.511 35 18.36 35.01 18.16 35.025C17.0117 35.1394 15.9384 35.6475 15.122 36.463L12.5 39.086L11.567 38.153C11.3758 37.9662 11.1193 37.8611 10.852 37.86C10.7195 37.8604 10.5885 37.8872 10.4664 37.9387C10.3443 37.9902 10.2337 38.0654 10.141 38.16L2.28 46.305C2.10066 46.492 2.00036 46.7409 2 47V61C2 61.2652 2.10536 61.5196 2.29289 61.7071C2.48043 61.8947 2.73478 62 3 62H17C17.2652 62 17.5195 61.8946 17.707 61.707L25.707 53.707C25.8945 53.5195 25.9998 53.2652 25.9998 53C25.9998 52.7349 25.8945 52.4806 25.707 52.293L24.914 51.5L25.121 51.293C25.309 51.1063 25.563 51.0011 25.828 51H38.928C39.8065 51.0021 40.6696 50.7694 41.428 50.326L56.948 41.366C57.559 41.0178 58.0663 40.5132 58.4177 39.9041C58.7692 39.295 58.9522 38.6033 58.948 37.9C58.948 37.1981 58.7639 36.5085 58.414 35.9C58.0269 35.2257 57.448 34.6816 56.751 34.337ZM16.586 60H4V47.4L10.873 40.283L23.586 53L16.586 60ZM55.95 39.634L40.421 48.6C39.9686 48.864 39.4538 49.0021 38.93 49H25.83C25.4359 48.9989 25.0455 49.076 24.6814 49.2269C24.3173 49.3778 23.9868 49.5995 23.709 49.879L23.502 50.086L13.914 40.5L16.537 37.877C17.0228 37.3909 17.6613 37.0872 18.345 37.017C18.455 37.008 18.558 37 18.66 37H26.346C26.7393 36.9991 27.1289 37.0762 27.4923 37.2267C27.8556 37.3772 28.1856 37.5982 28.463 37.877L28.707 38.121C28.9848 38.4006 29.3153 38.6223 29.6794 38.7731C30.0435 38.924 30.4339 39.0011 30.828 39H38.99C39.4839 38.9995 39.9614 39.177 40.335 39.5C40.7105 39.8299 40.9461 40.2905 40.994 40.788C41.0274 41.1011 40.9814 41.4175 40.86 41.708C40.7684 41.9757 40.6153 42.2182 40.413 42.416C40.2277 42.6019 40.0075 42.7492 39.7649 42.8494C39.5224 42.9497 39.2624 43.0009 39 43H32.42C32.1548 43 31.9004 43.1054 31.7129 43.2929C31.5254 43.4805 31.42 43.7348 31.42 44C31.42 44.2652 31.5254 44.5196 31.7129 44.7071C31.9004 44.8947 32.1548 45 32.42 45H39C39.5255 45.0009 40.0459 44.8977 40.5313 44.6964C41.0167 44.4951 41.4574 44.1996 41.828 43.827C42.152 43.5053 42.4161 43.1284 42.608 42.714L53.946 36.168C54.2364 36.0028 54.5634 35.9126 54.8974 35.9057C55.2315 35.8987 55.562 35.9751 55.859 36.128C56.2043 36.2967 56.4913 36.5649 56.683 36.898C56.8571 37.2026 56.9491 37.5472 56.95 37.898C56.9524 38.2501 56.8611 38.5965 56.6854 38.9016C56.5096 39.2067 56.2558 39.4595 55.95 39.634V39.634Z" fill="black"/>
<path d="M61 4H17C16.7348 4 16.4804 4.10536 16.2929 4.29289C16.1054 4.48043 16 4.73478 16 5V31C16 31.2652 16.1054 31.5196 16.2929 31.7071C16.4804 31.8946 16.7348 32 17 32H61C61.2652 32 61.5196 31.8946 61.7071 31.7071C61.8946 31.5196 62 31.2652 62 31V5C62 4.73478 61.8946 4.48043 61.7071 4.29289C61.5196 4.10536 61.2652 4 61 4V4ZM60 30H18V6H60V30Z" fill="black"/>
<path d="M20.508 24.951C21.5698 25.5518 22.4482 26.4302 23.049 27.492C23.1362 27.6462 23.2627 27.7746 23.4158 27.8638C23.5688 27.9531 23.7428 28.0001 23.92 28H54.08C54.256 28.0005 54.4291 27.9546 54.5817 27.8668C54.7343 27.779 54.861 27.6525 54.949 27.5C55.5564 26.4367 56.4372 25.5552 57.5 24.947C57.6522 24.8591 57.7785 24.7328 57.8663 24.5806C57.954 24.4283 58.0002 24.2557 58 24.08V11.92C58.0001 11.7428 57.9531 11.5688 57.8638 11.4158C57.7746 11.2627 57.6462 11.1362 57.492 11.049C56.4301 10.4479 55.5515 9.56966 54.95 8.508C54.8629 8.35391 54.7365 8.22569 54.5836 8.13644C54.4308 8.04719 54.257 8.00011 54.08 8H23.92C23.743 8.00011 23.5692 8.04719 23.4164 8.13644C23.2635 8.22569 23.1371 8.35391 23.05 8.508C22.4485 9.56966 21.5699 10.4479 20.508 11.049C20.3538 11.1362 20.2254 11.2627 20.1362 11.4158C20.0469 11.5688 19.9999 11.7428 20 11.92V24.08C19.9999 24.2572 20.0469 24.4312 20.1362 24.5842C20.2254 24.7373 20.3538 24.8638 20.508 24.951ZM31 18C31 16.4177 31.4692 14.871 32.3482 13.5554C33.2273 12.2398 34.4767 11.2145 35.9385 10.609C37.4003 10.0035 39.0089 9.84504 40.5607 10.1537C42.1126 10.4624 43.538 11.2243 44.6569 12.3431C45.7757 13.462 46.5376 14.8874 46.8463 16.4393C47.155 17.9911 46.9965 19.5997 46.391 21.0615C45.7855 22.5233 44.7602 23.7727 43.4446 24.6518C42.129 25.5308 40.5823 26 39 26C36.879 25.9976 34.8456 25.154 33.3458 23.6542C31.846 22.1544 31.0024 20.121 31 18V18ZM53.52 10C54.1701 10.9861 55.0139 11.8299 56 12.48V23.523C55.0177 24.1759 54.1753 25.018 53.522 26H44.974C46.223 25.0734 47.2378 23.8672 47.9369 22.478C48.6361 21.0888 49.0002 19.5552 49.0002 18C49.0002 16.4448 48.6361 14.9112 47.9369 13.522C47.2378 12.1328 46.223 10.9266 44.974 10H53.52ZM22 12.48C22.9861 11.8299 23.8299 10.9861 24.48 10H33.026C31.777 10.9266 30.7622 12.1328 30.0631 13.522C29.3639 14.9112 28.9998 16.4448 28.9998 18C28.9998 19.5552 29.3639 21.0888 30.0631 22.478C30.7622 23.8672 31.777 25.0734 33.026 26H24.48C23.8296 25.0141 22.9859 24.1704 22 23.52V12.48Z" fill="black"/>
<path d="M39 15C39.2652 15 39.5196 15.1054 39.7071 15.2929C39.8946 15.4804 40 15.7348 40 16C40 16.2652 40.1054 16.5196 40.2929 16.7071C40.4804 16.8946 40.7348 17 41 17C41.2652 17 41.5196 16.8946 41.7071 16.7071C41.8946 16.5196 42 16.2652 42 16C41.9974 15.3817 41.8039 14.7794 41.4459 14.2753C41.0879 13.7712 40.5829 13.3901 40 13.184V12C40 11.7348 39.8946 11.4804 39.7071 11.2929C39.5196 11.1054 39.2652 11 39 11C38.7348 11 38.4804 11.1054 38.2929 11.2929C38.1054 11.4804 38 11.7348 38 12V13.184C37.3333 13.4188 36.7713 13.882 36.4134 14.4915C36.0555 15.1011 35.9248 15.8176 36.0446 16.5142C36.1644 17.2108 36.5268 17.8425 37.0678 18.2975C37.6087 18.7525 38.2932 19.0013 39 19C39.1978 19 39.3911 19.0586 39.5556 19.1685C39.72 19.2784 39.8482 19.4346 39.9239 19.6173C39.9996 19.8 40.0194 20.0011 39.9808 20.1951C39.9422 20.3891 39.847 20.5673 39.7071 20.7071C39.5673 20.847 39.3891 20.9422 39.1951 20.9808C39.0011 21.0194 38.8 20.9996 38.6173 20.9239C38.4346 20.8482 38.2784 20.72 38.1685 20.5556C38.0586 20.3911 38 20.1978 38 20C38 19.7348 37.8946 19.4804 37.7071 19.2929C37.5196 19.1054 37.2652 19 37 19C36.7348 19 36.4804 19.1054 36.2929 19.2929C36.1054 19.4804 36 19.7348 36 20C36.0026 20.6183 36.1961 21.2206 36.5541 21.7247C36.9121 22.2288 37.4171 22.6099 38 22.816V24C38 24.2652 38.1054 24.5196 38.2929 24.7071C38.4804 24.8946 38.7348 25 39 25C39.2652 25 39.5196 24.8946 39.7071 24.7071C39.8946 24.5196 40 24.2652 40 24V22.816C40.6667 22.5812 41.2287 22.118 41.5866 21.5085C41.9445 20.8989 42.0752 20.1824 41.9554 19.4858C41.8356 18.7892 41.4732 18.1575 40.9322 17.7025C40.3913 17.2475 39.7068 16.9987 39 17C38.7348 17 38.4804 16.8946 38.2929 16.7071C38.1054 16.5196 38 16.2652 38 16C38 15.7348 38.1054 15.4804 38.2929 15.2929C38.4804 15.1054 38.7348 15 39 15Z" fill="black"/>
<path d="M51 19H53C53.2652 19 53.5196 18.8946 53.7071 18.7071C53.8946 18.5196 54 18.2652 54 18C54 17.7348 53.8946 17.4804 53.7071 17.2929C53.5196 17.1054 53.2652 17 53 17H51C50.7348 17 50.4804 17.1054 50.2929 17.2929C50.1054 17.4804 50 17.7348 50 18C50 18.2652 50.1054 18.5196 50.2929 18.7071C50.4804 18.8946 50.7348 19 51 19Z" fill="black"/>
<path d="M25 19H27C27.2652 19 27.5196 18.8946 27.7071 18.7071C27.8946 18.5196 28 18.2652 28 18C28 17.7348 27.8946 17.4804 27.7071 17.2929C27.5196 17.1054 27.2652 17 27 17H25C24.7348 17 24.4804 17.1054 24.2929 17.2929C24.1054 17.4804 24 17.7348 24 18C24 18.2652 24.1054 18.5196 24.2929 18.7071C24.4804 18.8946 24.7348 19 25 19Z" fill="black"/>
</svg>
